<?xml version="1.0" encoding="UTF-8" standalone="no"?>
<!DOCTYPE svg PUBLIC "-//W3C//DTD SVG 1.1//EN" "http://www.w3.org/Graphics/SVG/1.1/DTD/svg11.dtd">
<svg width="100%" height="100%" viewBox="0 0 1463 160" version="1.1" xmlns="http://www.w3.org/2000/svg" xmlns:xlink="http://www.w3.org/1999/xlink" xml:space="preserve" xmlns:serif="http://www.serif.com/" style="fill-rule:evenodd;clip-rule:evenodd;stroke-linejoin:round;stroke-miterlimit:2;">
    <g id="Artboard1" transform="matrix(0.761979,0,0,0.148148,0,0)">
        <rect x="0" y="0" width="1920" height="1080" style="fill:none;"/>
        <g transform="matrix(0.673102,0,0,3.462,-123.063,-1267.06)">
            <g>
                <g transform="matrix(364.368,0,0,364.368,177,676)">
                    <path d="M0.277,-0.669L0.152,-0.664L0.11,-0.441L0.016,-0.441L0.032,-0.743L0.691,-0.743L0.704,-0.441L0.615,-0.441L0.571,-0.664L0.45,-0.669L0.45,-0.077L0.589,-0.066L0.589,-0L0.15,-0L0.15,-0.066L0.277,-0.077L0.277,-0.669Z" style="fill:white;fill-rule:nonzero;"/>
                </g>
                <g transform="matrix(364.368,0,0,364.368,441.167,676)">
                    <path d="M0.087,-0.722L0.016,-0.735L0.016,-0.796L0.217,-0.82L0.22,-0.82L0.249,-0.799L0.25,-0.582L0.242,-0.493C0.263,-0.512 0.29,-0.53 0.324,-0.545C0.358,-0.56 0.395,-0.567 0.436,-0.567C0.478,-0.567 0.511,-0.559 0.534,-0.544C0.557,-0.529 0.574,-0.505 0.583,-0.474C0.592,-0.443 0.597,-0.401 0.597,-0.349L0.597,-0.075L0.658,-0.066L0.658,-0L0.38,-0L0.38,-0.066L0.433,-0.075L0.433,-0.348C0.433,-0.395 0.428,-0.427 0.418,-0.446C0.408,-0.464 0.388,-0.473 0.357,-0.473C0.338,-0.473 0.32,-0.469 0.301,-0.461C0.282,-0.452 0.267,-0.442 0.254,-0.43L0.254,-0.075L0.309,-0.066L0.309,-0L0.035,-0L0.035,-0.066L0.087,-0.075L0.087,-0.722Z" style="fill:white;fill-rule:nonzero;"/>
                </g>
                <g transform="matrix(364.368,0,0,364.368,687.844,676)">
                    <path d="M0.3,0.011C0.209,0.011 0.141,-0.015 0.097,-0.067C0.053,-0.118 0.031,-0.189 0.031,-0.278C0.031,-0.339 0.042,-0.391 0.065,-0.435C0.088,-0.479 0.119,-0.513 0.161,-0.536C0.202,-0.559 0.25,-0.57 0.305,-0.57C0.375,-0.57 0.429,-0.552 0.466,-0.517C0.502,-0.482 0.522,-0.432 0.523,-0.367C0.523,-0.324 0.52,-0.29 0.514,-0.264L0.201,-0.264C0.204,-0.207 0.218,-0.164 0.243,-0.135C0.267,-0.105 0.301,-0.09 0.345,-0.09C0.37,-0.09 0.396,-0.094 0.423,-0.102C0.45,-0.111 0.471,-0.12 0.488,-0.131L0.516,-0.07C0.499,-0.051 0.469,-0.032 0.428,-0.015C0.386,0.002 0.343,0.011 0.3,0.011ZM0.364,-0.33L0.365,-0.372C0.365,-0.414 0.359,-0.446 0.348,-0.468C0.337,-0.49 0.317,-0.501 0.29,-0.501C0.262,-0.501 0.24,-0.489 0.225,-0.465C0.21,-0.44 0.201,-0.395 0.2,-0.33L0.364,-0.33Z" style="fill:white;fill-rule:nonzero;"/>
                </g>
                <g transform="matrix(364.368,0,0,364.368,976.059,676)">
                    <path d="M0.034,-0.066L0.111,-0.076L0.111,-0.66L0.038,-0.674L0.038,-0.743L0.192,-0.743C0.205,-0.743 0.219,-0.743 0.234,-0.744C0.249,-0.745 0.26,-0.745 0.268,-0.746C0.304,-0.749 0.335,-0.75 0.36,-0.75C0.431,-0.75 0.488,-0.743 0.53,-0.73C0.572,-0.716 0.603,-0.695 0.622,-0.666C0.641,-0.636 0.65,-0.598 0.65,-0.551C0.65,-0.506 0.638,-0.463 0.614,-0.424C0.59,-0.385 0.555,-0.358 0.508,-0.343C0.539,-0.332 0.565,-0.311 0.586,-0.28C0.607,-0.249 0.628,-0.209 0.651,-0.161C0.664,-0.133 0.675,-0.112 0.683,-0.099C0.691,-0.085 0.699,-0.077 0.708,-0.075L0.737,-0.066L0.737,-0L0.547,-0C0.537,-0 0.527,-0.011 0.516,-0.032C0.505,-0.053 0.492,-0.087 0.475,-0.132C0.454,-0.187 0.437,-0.23 0.422,-0.261C0.406,-0.291 0.39,-0.309 0.372,-0.316L0.282,-0.316L0.282,-0.076L0.371,-0.066L0.371,-0L0.034,-0L0.034,-0.066ZM0.359,-0.381C0.394,-0.381 0.421,-0.395 0.44,-0.422C0.459,-0.449 0.469,-0.489 0.469,-0.544C0.469,-0.592 0.46,-0.627 0.441,-0.65C0.422,-0.672 0.39,-0.683 0.345,-0.683C0.321,-0.683 0.3,-0.681 0.282,-0.678L0.282,-0.384C0.291,-0.382 0.305,-0.381 0.325,-0.381L0.359,-0.381Z" style="fill:white;fill-rule:nonzero;"/>
                </g>
                <g transform="matrix(364.368,0,0,364.368,1242.41,676)">
                    <path d="M0.3,0.011C0.209,0.011 0.141,-0.015 0.097,-0.067C0.053,-0.118 0.031,-0.189 0.031,-0.278C0.031,-0.339 0.042,-0.391 0.065,-0.435C0.088,-0.479 0.119,-0.513 0.161,-0.536C0.202,-0.559 0.25,-0.57 0.305,-0.57C0.375,-0.57 0.429,-0.552 0.466,-0.517C0.502,-0.482 0.522,-0.432 0.523,-0.367C0.523,-0.324 0.52,-0.29 0.514,-0.264L0.201,-0.264C0.204,-0.207 0.218,-0.164 0.243,-0.135C0.267,-0.105 0.301,-0.09 0.345,-0.09C0.37,-0.09 0.396,-0.094 0.423,-0.102C0.45,-0.111 0.471,-0.12 0.488,-0.131L0.516,-0.07C0.499,-0.051 0.469,-0.032 0.428,-0.015C0.386,0.002 0.343,0.011 0.3,0.011ZM0.364,-0.33L0.365,-0.372C0.365,-0.414 0.359,-0.446 0.348,-0.468C0.337,-0.49 0.317,-0.501 0.29,-0.501C0.262,-0.501 0.24,-0.489 0.225,-0.465C0.21,-0.44 0.201,-0.395 0.2,-0.33L0.364,-0.33Z" style="fill:white;fill-rule:nonzero;"/>
                </g>
                <g transform="matrix(364.368,0,0,364.368,1444.27,676)">
                    <path d="M0.167,-0.083C0.172,-0.076 0.183,-0.069 0.2,-0.063C0.217,-0.057 0.234,-0.054 0.251,-0.054C0.278,-0.054 0.299,-0.06 0.314,-0.071C0.328,-0.083 0.335,-0.098 0.335,-0.117C0.335,-0.137 0.326,-0.154 0.307,-0.167C0.288,-0.18 0.258,-0.195 0.215,-0.214L0.177,-0.231C0.134,-0.25 0.101,-0.274 0.08,-0.302C0.058,-0.329 0.047,-0.364 0.047,-0.407C0.047,-0.438 0.056,-0.465 0.074,-0.49C0.092,-0.514 0.118,-0.533 0.152,-0.547C0.186,-0.561 0.226,-0.568 0.272,-0.568C0.304,-0.568 0.332,-0.566 0.355,-0.562C0.378,-0.558 0.402,-0.553 0.426,-0.547C0.442,-0.542 0.454,-0.54 0.462,-0.539L0.462,-0.403L0.373,-0.403L0.347,-0.48C0.344,-0.486 0.336,-0.492 0.323,-0.497C0.31,-0.501 0.296,-0.504 0.28,-0.504C0.255,-0.504 0.235,-0.499 0.22,-0.488C0.205,-0.476 0.198,-0.462 0.198,-0.443C0.198,-0.422 0.206,-0.405 0.223,-0.393C0.24,-0.38 0.266,-0.366 0.303,-0.349L0.324,-0.34C0.378,-0.317 0.42,-0.293 0.451,-0.267C0.482,-0.24 0.497,-0.204 0.497,-0.158C0.497,-0.109 0.477,-0.068 0.438,-0.037C0.399,-0.005 0.341,0.011 0.264,0.011C0.229,0.011 0.197,0.008 0.17,0.002C0.143,-0.003 0.113,-0.011 0.08,-0.02L0.047,-0.029L0.047,-0.162L0.142,-0.162L0.167,-0.083Z" style="fill:white;fill-rule:nonzero;"/>
                </g>
                <g transform="matrix(364.368,0,0,364.368,1636.66,676)">
                    <path d="M0.3,0.011C0.209,0.011 0.141,-0.015 0.097,-0.067C0.053,-0.118 0.031,-0.189 0.031,-0.278C0.031,-0.339 0.042,-0.391 0.065,-0.435C0.088,-0.479 0.119,-0.513 0.161,-0.536C0.202,-0.559 0.25,-0.57 0.305,-0.57C0.375,-0.57 0.429,-0.552 0.466,-0.517C0.502,-0.482 0.522,-0.432 0.523,-0.367C0.523,-0.324 0.52,-0.29 0.514,-0.264L0.201,-0.264C0.204,-0.207 0.218,-0.164 0.243,-0.135C0.267,-0.105 0.301,-0.09 0.345,-0.09C0.37,-0.09 0.396,-0.094 0.423,-0.102C0.45,-0.111 0.471,-0.12 0.488,-0.131L0.516,-0.07C0.499,-0.051 0.469,-0.032 0.428,-0.015C0.386,0.002 0.343,0.011 0.3,0.011ZM0.364,-0.33L0.365,-0.372C0.365,-0.414 0.359,-0.446 0.348,-0.468C0.337,-0.49 0.317,-0.501 0.29,-0.501C0.262,-0.501 0.24,-0.489 0.225,-0.465C0.21,-0.44 0.201,-0.395 0.2,-0.33L0.364,-0.33Z" style="fill:white;fill-rule:nonzero;"/>
                </g>
                <g transform="matrix(364.368,0,0,364.368,1838.52,676)">
                    <path d="M0.028,-0.16C0.028,-0.219 0.058,-0.264 0.117,-0.295C0.177,-0.326 0.256,-0.342 0.353,-0.343L0.353,-0.363C0.353,-0.387 0.35,-0.406 0.345,-0.42C0.34,-0.434 0.33,-0.445 0.316,-0.452C0.302,-0.459 0.281,-0.462 0.254,-0.462C0.221,-0.462 0.192,-0.458 0.167,-0.451C0.141,-0.443 0.114,-0.433 0.086,-0.42L0.052,-0.492C0.063,-0.501 0.08,-0.511 0.104,-0.524C0.128,-0.536 0.157,-0.547 0.191,-0.556C0.224,-0.565 0.259,-0.569 0.296,-0.569C0.349,-0.569 0.391,-0.562 0.422,-0.548C0.452,-0.534 0.473,-0.512 0.487,-0.483C0.5,-0.454 0.506,-0.414 0.506,-0.363L0.506,-0.066L0.558,-0.066L0.558,-0.003C0.543,0 0.521,0.004 0.494,0.007C0.467,0.01 0.443,0.012 0.424,0.012C0.399,0.012 0.382,0.008 0.374,0.001C0.365,-0.006 0.361,-0.021 0.361,-0.043L0.361,-0.066C0.344,-0.046 0.322,-0.028 0.294,-0.013C0.266,0.003 0.234,0.011 0.197,0.011C0.166,0.011 0.137,0.004 0.112,-0.01C0.086,-0.023 0.066,-0.043 0.051,-0.069C0.035,-0.094 0.028,-0.125 0.028,-0.16ZM0.275,-0.081C0.287,-0.081 0.3,-0.085 0.315,-0.092C0.33,-0.099 0.342,-0.107 0.353,-0.117L0.353,-0.276C0.301,-0.276 0.263,-0.267 0.237,-0.248C0.213,-0.229 0.2,-0.205 0.2,-0.176C0.2,-0.146 0.207,-0.123 0.22,-0.106C0.233,-0.089 0.252,-0.081 0.275,-0.081Z" style="fill:white;fill-rule:nonzero;"/>
                </g>
                <g transform="matrix(364.368,0,0,364.368,2046.21,676)">
                    <path d="M0.043,-0.066L0.104,-0.075L0.104,-0.451L0.045,-0.469L0.045,-0.547L0.211,-0.569L0.214,-0.569L0.242,-0.548L0.242,-0.524L0.239,-0.441L0.242,-0.441C0.247,-0.456 0.257,-0.474 0.274,-0.495C0.291,-0.515 0.312,-0.533 0.338,-0.548C0.363,-0.563 0.391,-0.57 0.421,-0.57C0.438,-0.57 0.452,-0.568 0.461,-0.563L0.461,-0.389C0.45,-0.397 0.439,-0.403 0.427,-0.408C0.414,-0.413 0.398,-0.415 0.379,-0.415C0.355,-0.415 0.333,-0.412 0.314,-0.406C0.295,-0.399 0.279,-0.392 0.268,-0.384L0.268,-0.075L0.378,-0.065L0.378,-0L0.043,-0L0.043,-0.066Z" style="fill:white;fill-rule:nonzero;"/>
                </g>
                <g transform="matrix(364.368,0,0,364.368,2221.11,676)">
                    <path d="M0.031,-0.274C0.031,-0.333 0.043,-0.385 0.067,-0.43C0.091,-0.475 0.125,-0.509 0.168,-0.534C0.211,-0.558 0.261,-0.57 0.318,-0.57C0.346,-0.57 0.37,-0.568 0.391,-0.565C0.411,-0.561 0.432,-0.556 0.453,-0.549C0.472,-0.544 0.484,-0.541 0.489,-0.54L0.482,-0.359L0.381,-0.359L0.355,-0.474C0.353,-0.483 0.347,-0.489 0.339,-0.493C0.33,-0.496 0.319,-0.498 0.306,-0.498C0.275,-0.498 0.25,-0.483 0.233,-0.452C0.215,-0.421 0.206,-0.37 0.206,-0.299C0.206,-0.231 0.217,-0.179 0.239,-0.142C0.262,-0.106 0.292,-0.088 0.33,-0.088C0.379,-0.088 0.425,-0.101 0.466,-0.126L0.493,-0.067C0.477,-0.049 0.451,-0.032 0.414,-0.015C0.377,0.002 0.337,0.011 0.292,0.011C0.205,0.011 0.139,-0.015 0.096,-0.067C0.053,-0.118 0.031,-0.187 0.031,-0.274Z" style="fill:white;fill-rule:nonzero;"/>
                </g>
                <g transform="matrix(364.368,0,0,364.368,2411.67,676)">
                    <path d="M0.087,-0.722L0.016,-0.735L0.016,-0.796L0.217,-0.82L0.22,-0.82L0.249,-0.799L0.25,-0.582L0.242,-0.493C0.263,-0.512 0.29,-0.53 0.324,-0.545C0.358,-0.56 0.395,-0.567 0.436,-0.567C0.478,-0.567 0.511,-0.559 0.534,-0.544C0.557,-0.529 0.574,-0.505 0.583,-0.474C0.592,-0.443 0.597,-0.401 0.597,-0.349L0.597,-0.075L0.658,-0.066L0.658,-0L0.38,-0L0.38,-0.066L0.433,-0.075L0.433,-0.348C0.433,-0.395 0.428,-0.427 0.418,-0.446C0.408,-0.464 0.388,-0.473 0.357,-0.473C0.338,-0.473 0.32,-0.469 0.301,-0.461C0.282,-0.452 0.267,-0.442 0.254,-0.43L0.254,-0.075L0.309,-0.066L0.309,-0L0.035,-0L0.035,-0.066L0.087,-0.075L0.087,-0.722Z" style="fill:white;fill-rule:nonzero;"/>
                </g>
                <g transform="matrix(364.368,0,0,364.368,2658.35,676)">
                    <path d="M0.3,0.011C0.209,0.011 0.141,-0.015 0.097,-0.067C0.053,-0.118 0.031,-0.189 0.031,-0.278C0.031,-0.339 0.042,-0.391 0.065,-0.435C0.088,-0.479 0.119,-0.513 0.161,-0.536C0.202,-0.559 0.25,-0.57 0.305,-0.57C0.375,-0.57 0.429,-0.552 0.466,-0.517C0.502,-0.482 0.522,-0.432 0.523,-0.367C0.523,-0.324 0.52,-0.29 0.514,-0.264L0.201,-0.264C0.204,-0.207 0.218,-0.164 0.243,-0.135C0.267,-0.105 0.301,-0.09 0.345,-0.09C0.37,-0.09 0.396,-0.094 0.423,-0.102C0.45,-0.111 0.471,-0.12 0.488,-0.131L0.516,-0.07C0.499,-0.051 0.469,-0.032 0.428,-0.015C0.386,0.002 0.343,0.011 0.3,0.011ZM0.364,-0.33L0.365,-0.372C0.365,-0.414 0.359,-0.446 0.348,-0.468C0.337,-0.49 0.317,-0.501 0.29,-0.501C0.262,-0.501 0.24,-0.489 0.225,-0.465C0.21,-0.44 0.201,-0.395 0.2,-0.33L0.364,-0.33Z" style="fill:white;fill-rule:nonzero;"/>
                </g>
                <g transform="matrix(364.368,0,0,364.368,2860.21,676)">
                    <path d="M0.043,-0.066L0.104,-0.075L0.104,-0.451L0.045,-0.469L0.045,-0.547L0.211,-0.569L0.214,-0.569L0.242,-0.548L0.242,-0.524L0.239,-0.441L0.242,-0.441C0.247,-0.456 0.257,-0.474 0.274,-0.495C0.291,-0.515 0.312,-0.533 0.338,-0.548C0.363,-0.563 0.391,-0.57 0.421,-0.57C0.438,-0.57 0.452,-0.568 0.461,-0.563L0.461,-0.389C0.45,-0.397 0.439,-0.403 0.427,-0.408C0.414,-0.413 0.398,-0.415 0.379,-0.415C0.355,-0.415 0.333,-0.412 0.314,-0.406C0.295,-0.399 0.279,-0.392 0.268,-0.384L0.268,-0.075L0.378,-0.065L0.378,-0L0.043,-0L0.043,-0.066Z" style="fill:white;fill-rule:nonzero;"/>
                </g>
            </g>
        </g>
    </g>
</svg>
